/* XPM */
static char *_1f786c4ac61448ed7d6840a43bc3491tHglAGlfsxeAgZlz[] = {
/* columns rows colors chars-per-pixel */
"128 128 15 1 ",
"  c #A67C52",
". c #8A5C36",
"X c #92633A",
"o c #C09566",
"O c #BD9264",
"+ c #AE8458",
"@ c #95663D",
"# c #A0744B",
"$ c #9D7148",
"% c #B0855A",
"& c #B1875B",
"* c #A5774C",
"= c #9F7349",
"- c #BE9365",
"; c #93653C",
/* pixels */
"                                                                                                                                ",
"                                                                                                                                ",
"                                                                                                                                ",
"                                                                                                                                ",
"                                                                                                                                ",
"                                                                                                                                ",
"                                                                                                                                ",
"                                                                                                                                ",
"                                                                                                                                ",
"                                                                                                                                ",
"                                                                                                                                ",
"                                                                                                                                ",
"#                                                                                                                          #@XX@",
";#                                                   XXXXXXXXXXXXXXXXXX                                                   +*$  $",
"$@                                                   o                X                                                   O&    ",
" X                                                   o                X                                                   o     ",
" X                                                   o                X                                                   o     ",
"$@                                                   o                X                                                   O%    ",
"*#                                                   o                X                                                   +-%  &",
"+                                                    o                X                                                    +OooO",
"                                                     o                X                                                         ",
"                                                     o                X                                                         ",
"                         #@XX@#                      oooooooooooooooooX                                                         ",
"                        +*$  =;#                                                                                                ",
"                        O&    =@                                                                                                ",
"                        o      X                                                                                                ",
"                        o      X                                                                                                ",
"                        O%    $@                                                                                                ",
"                        +-%  &*#                                                                                                ",
"                         +OooO+                                                                                                 ",
"                                                                                                                                ",
"                                                                                                                                ",
"                                                                                                                                ",
"                                                                                                                                ",
"                                                                                                                                ",
"                                                                                                                                ",
"                                                                                                                                ",
"                                                                                                                                ",
"                                                                                                                                ",
"                                                                                                                                ",
"                                                                                                                                ",
"                                                                                                                                ",
"                                                                                                                                ",
"                                                                                                                                ",
"                                                                                                                                ",
"                                                                                                                                ",
"                                                                                                                                ",
"                                                                                                                                ",
"                                                                                                                                ",
"                                                                                                 #@XX@#                         ",
"                                                                                                +*$  =;#                        ",
"                                                                                                O&    =@                        ",
"                                                                                                o      X                        ",
"                                                                                                o      X                        ",
"                                                                                                O%    $@                        ",
"                                                                                                +-%  &*#                        ",
"XXXXXXXXXo                                                                                       +OooO+                       XX",
"         o                                                                                                                    X ",
"         o                                    #@XX@#                                                                          X ",
"         o                                   +*$  =;#                                                                         X ",
"         o                                   O&    =@                                                                         X ",
"oooooooooo                                   o      X                                                                         Xo",
"                                             o      X                                                                           ",
"                                             O%    $@                                                                           ",
"                                             +-%  &*#                                                                           ",
"                                              +OooO+                                                                            ",
"                                                                                                                                ",
"                                                                                                                                ",
"                                                                                                                                ",
"                                                                                                                                ",
"                                                                                                                                ",
"                                                                                                                                ",
"                                                                                                                                ",
"                                                                                                                                ",
"                                                                                                                                ",
"                                                                                                                                ",
"                                                                                                                                ",
"                                                                                                                                ",
"                                                                                  XXXXXXXXXXXXXXXXXX                            ",
"                                                                                  o                X                            ",
"                                                                                  o                X                            ",
"                                                                                  o                X                            ",
"                                                                                  o                X                            ",
"                                                                                  o                X                            ",
"                                                                                  o                X                            ",
"                                                                                  o                X                            ",
"                                                                                  o                X                            ",
"                                                                                  oooooooooooooooooX                            ",
"                                                                                                                                ",
"                                                                                                                                ",
"                                                                                                                                ",
"                                                                                                                                ",
"                                                                                                                                ",
"                                                                                                                                ",
"                                                                                                                                ",
"                                                                                                                                ",
"                                                                                                                                ",
"                      XXXXXXXXXXXXXXXXXX                                                                                        ",
"                      o                X                                                                                        ",
"                      o                X                                                                                        ",
"                      o                X                                                                                        ",
"                      o                X                                                                                        ",
"                      o                X                                                                                        ",
"                      o                X                                                                                        ",
"                      o                X                                                                                        ",
"                      o                X                                                                                        ",
"                      oooooooooooooooooX                                      #@XX@#                                            ",
"                                                                             +*$  =;#                                           ",
"                                                                             O&    =@                                           ",
"                                                                             o      X                                           ",
"                                                                             o      X                                           ",
"                                                                             O%    $@                                           ",
"                                                                             +-%  &*#                                           ",
"                                                                              +OooO+                                            ",
"XX                                                                                                                    oXXXXXXXXX",
" X                                                                                                                    o         ",
" X                                                                                                                    o         ",
" X                                                                                                                    o         ",
" X                                                                                                                    o         ",
"oX                                                                                                                    oooooooooo",
"                                                                                                                                ",
"                                                                                                                                ",
"                                                                                                                                ",
"                                                                                                                                ",
"................................................................................................................................",
"................................................................................................................................",
"................................................................................................................................",
"................................................................................................................................"
};
