/* XPM */
static char *a379615a573b4b6fbe150d0d09691f98Nns7iH2OTKSzCe2N[] = {
/* columns rows colors chars-per-pixel */
"128 128 16 1 ",
"  c #A67C52",
". c #BE9568",
"X c #8A5C36",
"o c #92633A",
"O c #C09566",
"+ c #A0744B",
"@ c #95663D",
"# c #AE8458",
"$ c #BD9264",
"% c #9D7148",
"& c #A5774C",
"* c #B1875B",
"= c #9F7349",
"- c #B0855A",
"; c #93653C",
": c #BE9365",
/* pixels */
"                                                                                                                            ....",
"                                                                                                                            ....",
"                                                                                                                            ....",
"                                                                                                                            ....",
"                                                                                                                            ....",
"                                                                                                                            ....",
"                                                                                                                            ....",
"                                                                                                                            ....",
"                                                              oooooooooooooooooo                                            ....",
"                                                              O                o                                            ....",
"                                                              O                o                                            ....",
"                                                              O                o                                            ....",
"+                                                             O                o                                            ....",
";+                                                            O                o                                            ....",
"%@                                                            O                o                                            ....",
" o                                                            O                o                                            ....",
" o                                                            O                o                                            ....",
"%@                                                            OOOOOOOOOOOOOOOOOo                                            ....",
"&+                                                                                                                          ....",
"#                                                                                                                           ....",
"                                                                                                                            ....",
"                                   +@oo@+                                                                                   ....",
"                                  #&%  =;+                                                                                  ....",
"                                  $*    =@                                                                                  ....",
"                                  O      o                                                                                  ....",
"                                  O      o                                                                                  ....",
"                                  $-    %@                                                                                  ....",
"                                  #:-  *&+                                                                                  ....",
"                                   #$OO$#                                                                                   ....",
"                                                                                                                            ....",
"                                                                                                                            ....",
"                                                                                                                            ....",
"                                                                                                                            ....",
"                                                                                                                            ....",
"                                                                                                                            ....",
"                                                                                                                            ....",
"                                                                                                                            ....",
"                                                                                                                            ....",
"                                                                                                                            ....",
"                                                                                                                            ....",
"                                                                                                                            ....",
"                                                                                                       +@oo@+               ....",
"                                                                                                      #&%  =;+              ....",
"                                                                                                      $*    =@              ....",
"                                                                                                      O      o              ....",
"                                                                                                      O      o              ....",
"                                                                                                      $-    %@              ....",
"                                                                                                      #:-  *&+              ....",
"                                                                                                       #$OO$#               ....",
"                                                                                                                            ....",
"                                                                                                                            ....",
"                                                                                                                            ....",
"                                                                                                                            ....",
"                                                                                                                            ....",
"                                                                                                                            ....",
"                                                     +@oo@+                                                                 ....",
"oooooooooO                                          #&%  =;+                                                                ....",
"         O                                          $*    =@                                                                ....",
"         O                                          O      o                                                                ....",
"         O                                          O      o                                                                ....",
"         O                                          $-    %@                                                                ....",
"OOOOOOOOOO                                          #:-  *&+                                                                ....",
"                                                     #$OO$#                                                                 ....",
"                                                                                                                            ....",
"                                                                                                                            ....",
"                                                                                                                            ....",
"                                                                                                                            ....",
"                                                                                                                            ....",
"                                                                                                                            ....",
"                                                                                                                            ....",
"                                                                                                                            ....",
"                                                                                                                            ....",
"                                                                                                                            ....",
"                                                                                                                            ....",
"                                                                                                                            ....",
"                                                                                                                            ....",
"                                                                                                                            ....",
"                                                                                                                            ....",
"                                                                                                                            ....",
"                                                                                                                            ....",
"                                                                                                                            ....",
"                                                                                                                            ....",
"                                                                                                                            ....",
"                                                                                        oooooooooooooooooo                  ....",
"                                                                                        O                o                  ....",
"                                                                                        O                o                  ....",
"                                                                                        O                o                  ....",
"                                                                                        O                o                  ....",
"                                                                                        O                o                  ....",
"                                                                                        O                o                  ....",
"                                                                                        O                o                  ....",
"                                                                                        O                o                  ....",
"                                                                                        OOOOOOOOOOOOOOOOOo                  ....",
"                                                                                                                            ....",
"                                                                                                                            ....",
"                                                                                                                            ....",
"                                                                                                                            ....",
"                      oooooooooooooooooo                                                                                    ....",
"                      O                o                                                                                    ....",
"                      O                o                                                                                    ....",
"                      O                o                                                                                    ....",
"                      O                o                                                                                    ....",
"                      O                o                                                                                    ....",
"                      O                o                                                                                    ....",
"                      O                o                                                                                    ....",
"                      O                o                                                                                    ....",
"                      OOOOOOOOOOOOOOOOOo                                                                                    ....",
"                                                                                                                            ....",
"                                                                                                                            ....",
"                                                                                                                            ....",
"                                                                                                                            ....",
"                                                                                 +@oo@+                                     ....",
"                                                                                #&%  =;+                                    ....",
"                                                                                $*    =@                                    ....",
"oo                                                                              O      o                                    ....",
" o                                                                              O      o                                    ....",
" o                                                                              $-    %@                                    ....",
" o                                                                              #:-  *&+                                    ....",
" o                                                                               #$OO$#                                     ....",
"Oo                                                                                                                          ....",
"                                                                                                                            ....",
"                                                                                                                            ....",
"                                                                                                                            ....",
"                                                                                                                            ....",
"XXXXXXXXXXXXXXXXXXXXXXXXXXXXXXXXXXXXXXXXXXXXXXXXXXXXXXXXXXXXXXXXXXXXXXXXXXXXXXXXXXXXXXXXXXXXXXXXXXXXXXXXXXXXXXXXXXXXXXXXXXXX....",
"XXXXXXXXXXXXXXXXXXXXXXXXXXXXXXXXXXXXXXXXXXXXXXXXXXXXXXXXXXXXXXXXXXXXXXXXXXXXXXXXXXXXXXXXXXXXXXXXXXXXXXXXXXXXXXXXXXXXXXXXXXXX....",
"XXXXXXXXXXXXXXXXXXXXXXXXXXXXXXXXXXXXXXXXXXXXXXXXXXXXXXXXXXXXXXXXXXXXXXXXXXXXXXXXXXXXXXXXXXXXXXXXXXXXXXXXXXXXXXXXXXXXXXXXXXXX....",
"XXXXXXXXXXXXXXXXXXXXXXXXXXXXXXXXXXXXXXXXXXXXXXXXXXXXXXXXXXXXXXXXXXXXXXXXXXXXXXXXXXXXXXXXXXXXXXXXXXXXXXXXXXXXXXXXXXXXXXXXXXXX...."
};
