/* XPM */
static char *_beddb44bd954666cbd5ca0d3125ae78XtYKCkjrWfVf5TIN[] = {
/* columns rows colors chars-per-pixel */
"128 128 15 1 ",
"  c #A67C52",
". c #8A5C36",
"X c #92633A",
"o c #C09566",
"O c #BD9264",
"+ c #AE8458",
"@ c #95663D",
"# c #A0744B",
"$ c #B0855A",
"% c #9D7148",
"& c #B1875B",
"* c #A5774C",
"= c #9F7349",
"- c #BE9365",
"; c #93653C",
/* pixels */
"....                                                                                                                            ",
"....                                                                                                                            ",
"....                                                                                                                            ",
"....                                                                                                                            ",
"....                                                                                                                            ",
"....                                                                                                                            ",
"....                                                                                                                            ",
"....                                                                                                                            ",
"....                                                                                                                            ",
"....                                                                                                                            ",
"....                                                                                                                            ",
"....                                                                                                                            ",
"....               #@XX@#                                                                                                  #@XX@",
"....              +*%  =;#                                            XXXXXXXXXXXXXXXXXX                                  +*%  %",
"....              O&    =@                                            o                X                                  O&    ",
"....              o      X                                            o                X                                  o     ",
"....              o      X                                            o                X                                  o     ",
"....              O$    %@                                            o                X                                  O$    ",
"....              +-$  &*#                                            o                X                                  +-$  &",
"....               +OooO+                                             o                X                                   +OooO",
"....                                                                  o                X                                        ",
"....                                                                  o                X                                        ",
"....                                                                  oooooooooooooooooX                                        ",
"....                                                                                                                            ",
"....                                                                                                                            ",
"....                                                                                                                            ",
"....                                                                                                                            ",
"....                                                                                                                            ",
"....                                                                                                                            ",
"....                                                                                                                            ",
"....                                                                                                                            ",
"....                                                                                                                            ",
"....                                                                                                                            ",
"....                                                                                                                            ",
"....                                                                                                                            ",
"....                                                                                                                            ",
"....                                                                                                                            ",
"....                                                                                                                            ",
"....                                                                                                                            ",
"....                                                                                                                            ",
"....                                                                                                                            ",
"....                                                                                                                            ",
"....                                                                                                                            ",
"....                                                                                                                            ",
"....                                                                                                                            ",
"....                                                                                                                            ",
"....                                                                                                                            ",
"....                                                                                                                            ",
"....                                                                         #@XX@#                                             ",
"....                                                                        +*%  =;#                                            ",
"....                                                                        O&    =@                                            ",
"....                                                                        o      X                                            ",
"....                                                                        o      X                                            ",
"....                                                                        O$    %@                                            ",
"....                                                                        +-$  &*#                                            ",
"....                                                                         +OooO+                                             ",
"....                                                                                                                          XX",
"....                                                                                                                          X ",
"....                                                                                                                          X ",
"....       #@XX@#                                                                                                             X ",
"....      +*%  =;#                                                                                                            X ",
"....      O&    =@                                                                                                            Xo",
"....      o      X                                                                                                              ",
"....      o      X                                                                                                              ",
"....      O$    %@                                                                                                              ",
"....      +-$  &*#                                                                                                              ",
"....       +OooO+                                                                                                               ",
"....                                                                                                                            ",
"....                                                                                                                            ",
"....                                                                                                                            ",
"....                                                                                                                            ",
"....                                             XXXXXXXXXXXXXXXXXX                                                             ",
"....                                             o                X                                                             ",
"....                                             o                X                                                             ",
"....                                             o                X                                                             ",
"....                                             o                X                                                             ",
"....                                             o                X                                                             ",
"....                                             o                X                                                             ",
"....                                             o                X                                                             ",
"....                                             o                X                                                             ",
"....                                             oooooooooooooooooX                                                             ",
"....                                                                                                                            ",
"....                                                                                                                            ",
"....                                                                                                                            ",
"....                                                                                                                            ",
"....                                                                                                                            ",
"....                                                                                                                            ",
"....                                                                                                                            ",
"....                                                                                                                            ",
"....                                                                                                                            ",
"....                                                                                                                            ",
"....                                                                                                                            ",
"....                                                                                                                            ",
"....                                                                                                                            ",
"....                                                                                                                            ",
"....                                                                                                                            ",
"....                                                                                                                            ",
"....                                                                                                                            ",
"....                                                                                                                            ",
"....                                                                                                                            ",
"....                                                                                                                            ",
"....                                                                                                                            ",
"....                                                                                                                            ",
"....                                                                                      #@XX@#                                ",
"....                                                                                     +*%  =;#                               ",
"....                                                                                     O&    =@                               ",
"....                                                                                     o      X                               ",
"....                                                                                     o      X                               ",
"....            XXXXXXXXXXXXXXXXXX                                                       O$    %@                               ",
"....            o                X                                                       +-$  &*#                               ",
"....            o                X                                                        +OooO+                                ",
"....            o                X                                                                                              ",
"....            o                X                                                                                              ",
"....            o                X                                                                                              ",
"....            o                X                                                                                    oXXXXXXXXX",
"....            o                X                                                                                    o         ",
"....            o                X                                                                                    o         ",
"....            oooooooooooooooooX                                                                                    o         ",
"....                                                                                                                  o         ",
"....                                                                                                                  oooooooooo",
"....                                                                                                                            ",
"....                                                                                                                            ",
"....                                                                                                                            ",
"....                                                                                                                            ",
"....                                                                                                                            ",
"....                                                                                                                            ",
"....                                                                                                                            ",
"....                                                                                                                            "
};
